<mxfile host="app.diagrams.net" modified="2023-10-14T07:01:16.048Z" agent="Mozilla/5.0 (Windows NT 10.0; Win64; x64) AppleWebKit/537.36 (KHTML, like Gecko) Chrome/118.0.0.0 Safari/537.36" version="22.0.4" etag="kFJMdtJ-4euCQr5iWEYb" type="gitlab">
  <diagram name="Trang-1" id="NgxGOWWassE_e0WaZWrZ">
    <mxGraphModel>
      <root>
        <mxCell id="0" />
        <mxCell id="1" parent="0" />
      </root>
    </mxGraphModel>
  </diagram>
</mxfile>
